<svg width="30" height="30" viewBox="0 0 30 30" fill="none" xmlns="http://www.w3.org/2000/svg">
<g clip-path="url(#clip0_543_993)">
<path d="M24.8798 5.4365C23.056 4.56318 21.1009 3.92001 19.0565 3.55177C19.0196 3.54431 18.9826 3.56297 18.9623 3.5978C18.7108 4.06432 18.4319 4.6739 18.2376 5.15161C16.0382 4.80826 13.8507 4.80826 11.6966 5.15161C11.5023 4.6627 11.2126 4.06432 10.9611 3.5978C10.9408 3.56297 10.9038 3.54555 10.8669 3.55177C8.82366 3.91876 6.86864 4.56194 5.04356 5.4365C5.02806 5.44272 5.01375 5.45516 5.00541 5.47009C1.29683 11.2524 0.279985 16.8929 0.778277 22.4638C0.780661 22.4911 0.794966 22.5173 0.815231 22.5334C3.26258 24.4095 5.63245 25.5478 7.9594 26.3017C7.99635 26.3141 8.03569 26.2992 8.05953 26.2668C8.61027 25.4831 9.10022 24.6558 9.52103 23.7862C9.54606 23.7352 9.52222 23.6742 9.47096 23.6543C8.69253 23.3458 7.95224 22.9701 7.23938 22.5446C7.18335 22.5098 7.17858 22.4265 7.22984 22.3854C7.38004 22.2685 7.53025 22.1465 7.6733 22.0234C7.69952 22.001 7.73528 21.996 7.76628 22.0109C12.4488 24.2415 17.5175 24.2415 22.144 22.0109C22.175 21.996 22.2108 21.9998 22.2382 22.0234C22.3812 22.1465 22.5314 22.2697 22.6828 22.3867C22.7353 22.4265 22.7317 22.5111 22.6745 22.5459C21.9616 22.9801 21.2213 23.3483 20.4417 23.6543C20.3905 23.6742 20.369 23.7364 20.3928 23.7874C20.822 24.6558 21.3131 25.4831 21.8531 26.2668C21.8758 26.3004 21.9163 26.3141 21.9533 26.3029C24.291 25.5478 26.662 24.4095 29.1082 22.5347C29.1296 22.5185 29.1427 22.4936 29.1451 22.4663C29.7412 16.0258 28.1462 10.4314 24.9156 5.47258C24.9097 5.45516 24.8953 5.44272 24.8798 5.4365ZM10.2208 19.0725C8.81054 19.0725 7.64945 17.7215 7.64945 16.0632C7.64945 14.4048 8.7879 13.0538 10.2208 13.0538C11.6644 13.0538 12.8148 14.416 12.7921 16.0632C12.7921 17.7227 11.6525 19.0725 10.2208 19.0725ZM19.7277 19.0725C18.3186 19.0725 17.1563 17.7215 17.1563 16.0632C17.1563 14.4048 18.2948 13.0538 19.7277 13.0538C21.1713 13.0538 22.3216 14.416 22.299 16.0632C22.299 17.7227 21.1713 19.0725 19.7277 19.0725Z" fill="#2D283E"/>
</g>
<defs>
<clipPath id="clip0_543_993">
<rect width="28.61" height="29.8571" fill="white" transform="translate(0.660156)"/>
</clipPath>
</defs>
</svg>
