<svg id="_Слой_2" data-name="Слой 2" width="48" height="48" xmlns="http://www.w3.org/2000/svg" viewBox="0 0 299.86 296.05">
  <defs>
    <style>
      .cls-1, .cls-2, .cls-3 {
        fill: #fff;
      }

      .cls-1, .cls-4, .cls-3, .cls-5, .cls-6, .cls-7 {
        stroke: #1d1d1b;
      }

      .cls-1, .cls-5, .cls-7 {
        stroke-width: 5px;
      }

      .cls-1, .cls-7 {
        stroke-linecap: round;
        stroke-linejoin: round;
      }

      .cls-4, .cls-3, .cls-5, .cls-6 {
        stroke-miterlimit: 10;
      }

      .cls-4, .cls-3, .cls-6 {
        stroke-width: 3px;
      }

      .cls-4, .cls-8 {
        fill: #1d1d1b;
      }

      .cls-5, .cls-6, .cls-7 {
        fill: none;
      }

      .cls-9 {
        fill: #7a5af8;
      }
    </style>
  </defs>
  <rect class="cls-9" x="53.16" y="45.42" width="189.35" height="189.35" rx="37.27" ry="37.27"/>
  <g>
    <rect class="cls-4" x="94.1" y="132.41" width="22.47" height="8.15" rx="4.01" ry="4.01" transform="translate(91.12 -35.34) rotate(32.93)"/>
    <g>
      <g>
        <path class="cls-8" d="M203.28,122.03s-.02,.03-.03,.04c-.25,.45-.68,.81-1.28,.94l-70.93,15.24c-.13,.03-.24,.04-.37,.04-.39,.01-.77-.1-1.1-.31l-42.01-27.21c-.46-.3-.73-.72-.85-1.17v-.02c-.03-.15-.05-.31-.05-.46,.01-.85,.57-1.69,1.56-1.9l64.1-13.41c.44-.09,.9-.03,1.3,.18l48.84,25.38c1.06,.55,1.29,1.78,.82,2.66Z"/>
        <polygon class="cls-2" points="107.76 121.97 108.13 115.06 159.33 105.48 159.33 110.16 114.3 119.56 112.95 124.83 107.76 121.97"/>
        <polygon class="cls-2" points="119.8 127.89 120.17 120.98 171.37 111.4 171.37 116.08 126.34 125.48 124.99 130.75 119.8 127.89"/>
        <polygon class="cls-2" points="182.58 126.11 182.58 119.99 131.39 129.57 131.02 136.48 182.58 126.11"/>
        <path class="cls-1" d="M84.01,107.39l-15.94-16.93c-1.05-1.11-.47-2.95,1.02-3.26l63.4-13.34c.66-.14,1.34,.08,1.8,.56l17.59,18.69"/>
        <path class="cls-1" d="M207.7,121.07h0s-.84,.19-.84,.19l-3.6,.81c-.25,.45-.68,.81-1.28,.94l-70.93,15.24c-.13,.03-.24,.04-.37,.04-.39,.01-.77-.1-1.1-.31l-42.01-27.21c-.46-.3-.73-.72-.85-1.17l-1.86-1.2v64.46c0,2.65,1.34,5.11,3.55,6.55l39.81,25.81c1.58,1.02,3.5,1.38,5.34,1l68.17-14.26c2.6-.54,4.48-2.8,4.54-5.46l.84-38.03-52.07,12.47c-.73,.17-1.49-.05-2.02-.57l-20.09-21.49,74.77-16.75,.02-1.06Zm-92.72,21.93l-.07,.1c-1.2,1.85-3.69,2.39-5.55,1.19l-12.12-7.85c-1.85-1.2-2.38-3.7-1.18-5.56l.06-.1c1.2-1.85,3.7-2.39,5.55-1.18l12.12,7.85c1.86,1.2,2.39,3.69,1.19,5.55Z"/>
        <path class="cls-1" d="M114.98,143l-.07,.1c-1.2,1.85-3.69,2.39-5.55,1.19l-12.12-7.85c-1.85-1.2-2.38-3.7-1.18-5.56l.06-.1c1.2-1.85,3.7-2.39,5.55-1.18l12.12,7.85c1.86,1.2,2.39,3.69,1.19,5.55Z"/>
        <path class="cls-1" d="M130.67,137.63v.66c-.39,.01-.77-.1-1.1-.31l-42.01-27.21c-.46-.3-.73-.72-.85-1.17l-1.86-1.2,1.86,1.18,43.96,28.05Z"/>
        <path class="cls-1" d="M154.58,93.47l20.81-16.86c.58-.47,1.39-.55,2.05-.21l50.51,26.13c1.23,.63,1.37,2.33,.26,3.16l-19.65,14.68"/>
        <path class="cls-5" d="M152.47,93.08l-68.47,14.32m0,0l2.66,1.72,44.01,28.51m22.75-44.75l1.16,.6,53.1,27.59m-77.01,16.56l72.61-15.6,3.57-.77"/>
        <path class="cls-1" d="M203.25,122.07c-.25,.45-.68,.81-1.28,.94l-70.93,15.24,72.21-16.18Z"/>
        <path class="cls-1" d="M207.68,122.13l-.59,26.34-52.07,12.47c-.73,.17-1.49-.05-2.02-.57l-20.09-21.49,74.77-16.75Z"/>
        <polygon class="cls-1" points="207.69 121.08 206.85 121.26 207.68 121.07 207.69 121.08"/>
        <path class="cls-3" d="M103.23,118.15v-7.25s44.97-9.03,49.74-9.71c4.78-.68,9.93,.72,5.67,3.56-3.85,.71-50.79,9.34-50.79,9.34l-.55,6.78-4.07-2.71Z"/>
        <path class="cls-3" d="M114.52,125.53v-7.25s44.97-9.03,49.74-9.71,9.93,.72,5.67,3.56c-3.85,.71-50.79,9.34-50.79,9.34l-.55,6.78-4.07-2.71Z"/>
        <path class="cls-3" d="M126.08,133.59v-7.25s44.97-9.03,49.74-9.71c4.78-.68,9.93,.72,5.67,3.56l-50.79,9.34-.55,6.78-4.07-2.71Z"/>
        <line class="cls-6" x1="160.07" y1="101.85" x2="160.07" y2="109.39"/>
        <line class="cls-6" x1="171.37" y1="109.22" x2="171.37" y2="116.77"/>
        <path class="cls-4" d="M114.98,143l-.07,.1c-1.2,1.85-3.69,2.39-5.55,1.19l-12.12-7.85c-1.85-1.2-2.38-3.7-1.18-5.56l.06-.1c1.2-1.85,3.7-2.39,5.55-1.18l12.12,7.85c1.86,1.2,2.39,3.69,1.19,5.55Z"/>
        <polyline class="cls-7" points="130.67 206.22 131.04 138.25 130.67 138.01 86.71 109.6"/>
      </g>
      <path class="cls-1" d="M224.94,144.19l-17.85,4.28-52.07,12.47c-.73,.17-1.49-.05-2.02-.57l-20.09-21.49,74.77-16.75,.18-.04,18.11,18.45c1.2,1.21,.62,3.26-1.03,3.65Z"/>
    </g>
    <rect class="cls-2" x="91.34" y="128.76" width="29.22" height="16.36" transform="translate(91.47 -35.59) rotate(32.93)"/>
    <rect class="cls-4" x="93.93" y="132.67" width="22.47" height="8.15" rx="4.01" ry="4.01" transform="translate(91.24 -35.2) rotate(32.93)"/>
  </g>
</svg>