<svg width="29" height="30" viewBox="0 0 29 30" fill="none" xmlns="http://www.w3.org/2000/svg">
<path fill-rule="evenodd" clip-rule="evenodd" d="M14.5479 0C6.81635 0 0.547852 6.71625 0.547852 15C0.547852 23.2837 6.81635 30 14.5479 30C22.2794 30 28.5479 23.2837 28.5479 15C28.5479 6.71625 22.2794 0 14.5479 0ZM21.0369 10.2013C20.8269 12.5725 19.9145 18.3288 19.4513 20.985C19.2554 22.11 18.868 22.4862 18.4947 22.5225C17.6815 22.6025 17.0644 21.9462 16.2769 21.3937C15.0449 20.5287 14.3484 19.99 13.1525 19.145C11.77 18.1688 12.666 17.6325 13.4535 16.7562C13.66 16.5262 17.2417 13.035 17.3117 12.7188C17.3199 12.6788 17.3292 12.5312 17.2464 12.4537C17.1635 12.3762 17.0434 12.4025 16.957 12.4237C16.8334 12.4538 14.8652 13.8475 11.0514 16.605C10.4925 17.0162 9.98619 17.2163 9.53235 17.2063C9.03302 17.195 8.07168 16.9037 7.35652 16.6537C6.48035 16.3487 5.78268 16.1863 5.84335 15.6687C5.87485 15.3987 6.22135 15.1225 6.88402 14.84C10.965 12.935 13.6869 11.6788 15.0484 11.0713C18.9369 9.33875 19.7442 9.0375 20.2715 9.0275C20.9319 9.0175 21.0905 9.60125 21.0369 10.2013Z" fill="#2D283E"/>
</svg>
