<svg width="30" height="30" viewBox="0 0 30 30" fill="none" xmlns="http://www.w3.org/2000/svg">
<g clip-path="url(#clip0_543_991)">
<path d="M27.6101 12.2738C25.0602 12.2738 22.6963 11.4228 20.7675 9.97726V20.4086C20.7675 25.6187 16.7061 29.8559 11.7148 29.8559C9.78601 29.8559 7.99669 29.2214 6.52685 28.1441C4.19275 26.4335 2.66211 23.6046 2.66211 20.4086C2.66211 15.1985 6.72354 10.9601 11.716 10.9601C12.1308 10.9601 12.5361 10.9961 12.9355 11.0521V12.2676V16.292C12.5493 16.1664 12.1416 16.093 11.716 16.093C9.43673 16.093 7.58184 18.0287 7.58184 20.4086C7.58184 22.0657 8.48306 23.505 9.79912 24.2278C10.3725 24.5426 11.0246 24.723 11.7172 24.723C13.944 24.723 15.7607 22.8743 15.8442 20.5703L15.8478 0H20.7663C20.7663 0.445369 20.808 0.879542 20.8819 1.30252C21.2288 3.25816 22.341 4.93638 23.8824 5.98511C24.9553 6.71537 26.2356 7.14208 27.6089 7.14208L27.6101 12.2738Z" fill="#2D283E"/>
</g>
<defs>
<clipPath id="clip0_543_991">
<rect width="28.61" height="29.8571" fill="white" transform="translate(0.830078)"/>
</clipPath>
</defs>
</svg>
