<svg width="30" height="30" viewBox="0 0 30 30" fill="none" xmlns="http://www.w3.org/2000/svg">
<g clip-path="url(#clip0_543_988)">
<path d="M27.5176 2.09498C25.5101 0 22.2784 0 15.8161 0H14.624C8.16172 0 4.92998 0 2.92251 2.09498C0.915039 4.18995 0.915039 7.56256 0.915039 14.3065V15.5506C0.915039 22.2946 0.915039 25.6659 2.92251 27.7622C4.92998 29.8584 8.16172 29.8571 14.624 29.8571H15.8161C22.2784 29.8571 25.5089 29.8571 27.5176 27.7622C29.5251 25.6672 29.5251 22.2946 29.5251 15.5506V14.3065C29.5251 7.56256 29.5251 4.18995 27.5176 2.09498ZM24.1643 21.1488H22.0781C21.283 21.1488 21.0494 20.487 19.6343 19.0103C18.3958 17.765 17.8653 17.6033 17.5565 17.6033C17.1357 17.6033 17.0106 17.7277 17.0106 18.3497V20.3016C17.0106 20.8366 16.8473 21.1488 15.5205 21.1488C13.3103 21.1488 10.8809 19.748 9.15592 17.1654C6.5691 13.3822 5.86219 10.5222 5.86219 9.94616C5.86219 9.62271 5.9814 9.33036 6.57744 9.33036H8.66478C9.19765 9.33036 9.39791 9.57419 9.59819 10.1763C10.6186 13.2777 12.34 15.9885 13.0469 15.9885C13.3115 15.9885 13.4331 15.8604 13.4331 15.1587V11.9528C13.3556 10.4774 12.6034 10.3555 12.6034 9.83046C12.6034 9.58787 12.8025 9.33036 13.1339 9.33036H16.4133C16.8556 9.33036 17.0094 9.57668 17.0094 10.1303V14.4434C17.0094 14.9037 17.2013 15.0654 17.3336 15.0654C17.5995 15.0654 17.82 14.9037 18.3064 14.3961C19.8096 12.6433 20.8705 9.94492 20.8705 9.94492C21.0041 9.62146 21.2472 9.32911 21.7789 9.32911H23.8651C24.4957 9.32911 24.6292 9.66749 24.4957 10.129C24.2298 11.398 21.6883 15.1338 21.6883 15.1338C21.4666 15.5033 21.3784 15.6874 21.6883 16.103C21.91 16.4264 22.6384 17.0721 23.1248 17.6717C24.0212 18.7242 24.6971 19.6112 24.8855 20.2232C25.0595 20.8378 24.7603 21.1488 24.1643 21.1488Z" fill="#2D283E"/>
</g>
<defs>
<clipPath id="clip0_543_988">
<rect width="28.61" height="29.8571" fill="white" transform="translate(0.915039)"/>
</clipPath>
</defs>
</svg>
