<svg width="14" height="15" viewBox="0 0 14 15" fill="none" xmlns="http://www.w3.org/2000/svg">
<mask id="path-1-inside-1_293_1951" fill="white">
<path d="M4.11351 13.3017C4.19171 13.2886 4.27202 13.2999 4.34369 13.3341C5.16692 13.7274 6.06874 13.9341 7.00036 13.9341C10.4366 13.9341 13.2223 11.1201 13.2223 7.64894C13.2223 4.17774 10.4366 1.36377 7.00036 1.36377C3.5641 1.36377 0.778457 4.17774 0.778457 7.64894C0.778457 8.98997 1.19477 10.2666 1.95638 11.3297C2.03848 11.4443 2.05324 11.5946 1.99504 11.7232L1.04741 13.8179L4.11351 13.3017ZM0.453518 14.7144C0.146147 14.7662 -0.0936185 14.45 0.0359025 14.1637L1.19527 11.6009C0.421813 10.444 0.000719532 9.07803 0.000719532 7.64894C0.000719532 3.74384 3.13456 0.578125 7.00036 0.578125C10.8662 0.578125 14 3.74384 14 7.64894C14 11.554 10.8662 14.7198 7.00036 14.7198C5.99516 14.7198 5.01936 14.5053 4.12315 14.0966L0.453518 14.7144Z"/>
</mask>
<path d="M4.11351 13.3017L4.27953 14.2879L4.11351 13.3017ZM4.34369 13.3341L3.91262 14.2364L3.91262 14.2364L4.34369 13.3341ZM1.95638 11.3297L2.76929 10.7473H2.76929L1.95638 11.3297ZM1.99504 11.7232L2.90614 12.1354L1.99504 11.7232ZM1.04741 13.8179L0.136304 13.4058L-0.637241 15.1156L1.21343 14.8041L1.04741 13.8179ZM0.453518 14.7144L0.619543 15.7005H0.619543L0.453518 14.7144ZM0.0359025 14.1637L-0.8752 13.7515L0.0359025 14.1637ZM1.19527 11.6009L2.10637 12.0131L2.33534 11.507L2.02661 11.0452L1.19527 11.6009ZM4.12315 14.0966L4.53809 13.1867L4.25929 13.0596L3.95712 13.1105L4.12315 14.0966ZM4.27953 14.2879C4.15448 14.3089 4.02631 14.2907 3.91262 14.2364L4.77477 12.4318C4.51774 12.309 4.22894 12.2682 3.94748 12.3156L4.27953 14.2879ZM3.91262 14.2364C4.87034 14.694 5.91943 14.9341 7.00036 14.9341V12.9341C6.21805 12.9341 5.46351 12.7608 4.77477 12.4318L3.91262 14.2364ZM7.00036 14.9341C10.9984 14.9341 14.2223 11.6629 14.2223 7.64894H12.2223C12.2223 10.5774 9.87482 12.9341 7.00036 12.9341V14.9341ZM14.2223 7.64894C14.2223 3.63501 10.9984 0.363771 7.00036 0.363771V2.36377C9.87482 2.36377 12.2223 4.72046 12.2223 7.64894H14.2223ZM7.00036 0.363771C3.0023 0.363771 -0.221543 3.63502 -0.221543 7.64894H1.77846C1.77846 4.72046 4.1259 2.36377 7.00036 2.36377V0.363771ZM-0.221543 7.64894C-0.221543 9.19931 0.260448 10.6795 1.14347 11.9121L2.76929 10.7473C2.12909 9.85368 1.77846 8.78063 1.77846 7.64894H-0.221543ZM1.14347 11.9121C1.0172 11.7358 0.9953 11.507 1.08394 11.3111L2.90614 12.1354C3.11119 11.6822 3.05976 11.1527 2.76929 10.7473L1.14347 11.9121ZM1.08394 11.3111L0.136304 13.4058L1.95851 14.2301L2.90614 12.1354L1.08394 11.3111ZM1.21343 14.8041L4.27953 14.2879L3.94748 12.3156L0.881382 12.8318L1.21343 14.8041ZM0.287493 13.7283C0.790585 13.6436 1.13846 14.1526 0.947005 14.5758L-0.8752 13.7515C-1.3257 14.7473 -0.498291 15.8887 0.619543 15.7005L0.287493 13.7283ZM0.947005 14.5758L2.10637 12.0131L0.284166 11.1888L-0.8752 13.7515L0.947005 14.5758ZM2.02661 11.0452C1.36288 10.0523 1.00072 8.87974 1.00072 7.64894H-0.99928C-0.99928 9.27632 -0.519252 10.8356 0.363928 12.1567L2.02661 11.0452ZM1.00072 7.64894C1.00072 4.28656 3.69636 1.57812 7.00036 1.57812V-0.421875C2.57277 -0.421875 -0.99928 3.20111 -0.99928 7.64894H1.00072ZM7.00036 1.57812C10.3044 1.57812 13 4.28656 13 7.64894H15C15 3.20111 11.428 -0.421875 7.00036 -0.421875V1.57812ZM13 7.64894C13 11.0113 10.3044 13.7198 7.00036 13.7198V15.7198C11.428 15.7198 15 12.0968 15 7.64894H13ZM7.00036 13.7198C6.13849 13.7198 5.30418 13.5361 4.53809 13.1867L3.7082 15.0064C4.73453 15.4745 5.85182 15.7198 7.00036 15.7198V13.7198ZM3.95712 13.1105L0.287493 13.7283L0.619543 15.7005L4.28917 15.0827L3.95712 13.1105Z" fill="#7A5AF8" mask="url(#path-1-inside-1_293_1951)"/>
</svg>
