<svg width="33" height="30" viewBox="0 0 33 30" fill="none" xmlns="http://www.w3.org/2000/svg">
<path fill-rule="evenodd" clip-rule="evenodd" d="M31.5 15.341C31.5 14.2773 31.3977 13.2546 31.2078 12.2728H16.0713V18.0751H24.7207C24.3481 19.9501 23.2158 21.5387 21.5137 22.6024V26.366H26.7077C29.7467 23.7546 31.5 19.9092 31.5 15.341Z" fill="#7A5AF8"/>
<path fill-rule="evenodd" clip-rule="evenodd" d="M16.0692 30C20.4085 30 24.0465 28.6568 26.7056 26.3659L21.5116 22.6022C20.0724 23.5022 18.2315 24.0341 16.0692 24.0341C11.8832 24.0341 8.3402 21.3954 7.07639 17.8499H1.70703V21.7363C4.35153 26.6386 9.78664 30 16.0692 30Z" fill="#7A5AF8"/>
<path fill-rule="evenodd" clip-rule="evenodd" d="M7.07879 17.85C6.75736 16.95 6.57472 15.9886 6.57472 15C6.57472 14.0113 6.75736 13.05 7.07879 12.15V8.26358H1.70943C0.620946 10.2886 0 12.5795 0 15C0 17.4204 0.620946 19.7114 1.70943 21.7364L7.07879 17.85Z" fill="#7A5AF8"/>
<path fill-rule="evenodd" clip-rule="evenodd" d="M16.0692 5.96593C18.4287 5.96593 20.5473 6.72275 22.2129 8.20912L26.8225 3.90683C24.0392 1.48637 20.4012 0 16.0692 0C9.78664 0 4.35153 3.36138 1.70703 8.26367L7.07639 12.15C8.3402 8.60458 11.8832 5.96593 16.0692 5.96593Z" fill="#7A5AF8"/>
</svg>
