<svg width="17" height="15" viewBox="0 0 17 15" fill="none" xmlns="http://www.w3.org/2000/svg">
<path d="M8.06835 3.04265L8.5 3.78102L8.93165 3.04265C9.27209 2.46031 9.77082 1.96995 10.3803 1.62375C10.9859 1.27973 11.6781 1.09106 12.3877 1.0783C13.5299 1.12877 14.5996 1.60333 15.3669 2.39118C16.1363 3.1813 16.5393 4.22173 16.497 5.28424L16.4966 5.29419V5.30415C16.4966 6.65473 15.7377 8.1366 14.5573 9.60457C13.3877 11.0591 11.8619 12.4293 10.4548 13.5468L10.4545 13.5471C9.91048 13.9799 9.21851 14.22 8.5 14.22C7.78149 14.22 7.08952 13.9799 6.54555 13.5471L6.5452 13.5468C5.13807 12.4293 3.6123 11.0591 2.4427 9.60457C1.26232 8.1366 0.503428 6.65473 0.503428 5.30415V5.29419L0.503031 5.28424C0.460684 4.22173 0.863699 3.1813 1.63314 2.39118C2.40036 1.60333 3.47013 1.12877 4.61231 1.0783C5.32189 1.09106 6.01412 1.27973 6.61974 1.62375C7.22918 1.96995 7.72791 2.46031 8.06835 3.04265Z" stroke="#7A5AF8"/>
</svg>
