
<svg id="_Слой_2" data-name="Слой 2" xmlns="http://www.w3.org/2000/svg" viewBox="0 0 309.16 296.05">
  <defs>
    <style>
      .cls-1, .cls-2, .cls-3 {
        fill: #fff;
      }

      .cls-1, .cls-4, .cls-3, .cls-5, .cls-6, .cls-7 {
        stroke: #1d1d1b;
      }

      .cls-1, .cls-5, .cls-7 {
        stroke-width: 5px;
      }

      .cls-1, .cls-7 {
        stroke-linecap: round;
        stroke-linejoin: round;
      }

      .cls-4 {
        fill: #1d1d1b;
      }

      .cls-4, .cls-3, .cls-5, .cls-6 {
        stroke-miterlimit: 10;
      }

      .cls-4, .cls-3, .cls-6 {
        stroke-width: 3px;
      }

      .cls-5, .cls-6, .cls-7 {
        fill: none;
      }

      .cls-8 {
        fill: #7a5af8;
      }
    </style>
  </defs>
  <rect class="cls-2" x="63.27" y="50.25" width="189.35" height="189.35" rx="37.27" ry="37.27"/>
  <rect class="cls-4" x="104.22" y="137.24" width="22.47" height="8.15" rx="4.01" ry="4.01" transform="translate(95.37 -40.06) rotate(32.93)"/>
  <path class="cls-8" d="M213.4,126.86s-.02,.03-.03,.04c-.25,.45-.68,.81-1.28,.94l-70.93,15.24c-.13,.03-.24,.04-.37,.04-.39,.01-.77-.1-1.1-.31l-42.01-27.21c-.46-.3-.73-.72-.85-1.17v-.02c-.03-.15-.05-.31-.05-.46,.01-.85,.57-1.69,1.56-1.9l64.1-13.41c.44-.09,.9-.03,1.3,.18l48.84,25.38c1.06,.55,1.29,1.78,.82,2.66Z"/>
  <polygon class="cls-2" points="117.88 126.8 118.25 119.89 169.44 110.31 169.44 114.99 124.41 124.39 123.06 129.66 117.88 126.8"/>
  <polygon class="cls-2" points="129.92 132.72 130.29 125.81 181.48 116.23 181.48 120.92 136.45 130.31 135.1 135.58 129.92 132.72"/>
  <polygon class="cls-2" points="192.7 130.95 192.7 124.82 141.5 134.4 141.13 141.31 192.7 130.95"/>
  <path class="cls-1" d="M94.12,112.22l-15.94-16.93c-1.05-1.11-.47-2.95,1.02-3.26l63.4-13.34c.66-.14,1.34,.08,1.8,.56l17.59,18.69"/>
  <path class="cls-1" d="M217.81,125.9h0s-.84,.19-.84,.19l-3.6,.81c-.25,.45-.68,.81-1.28,.94l-70.93,15.24c-.13,.03-.24,.04-.37,.04-.39,.01-.77-.1-1.1-.31l-42.01-27.21c-.46-.3-.73-.72-.85-1.17l-1.86-1.2v64.46c0,2.65,1.34,5.11,3.55,6.55l39.81,25.81c1.58,1.02,3.5,1.38,5.34,1l68.17-14.26c2.6-.54,4.48-2.8,4.54-5.46l.84-38.03-52.07,12.47c-.73,.17-1.49-.05-2.02-.57l-20.09-21.49,74.77-16.75,.02-1.06Zm-92.72,21.93l-.07,.1c-1.2,1.85-3.69,2.39-5.55,1.19l-12.12-7.85c-1.85-1.2-2.38-3.7-1.18-5.56l.06-.1c1.2-1.85,3.7-2.39,5.55-1.18l12.12,7.85c1.86,1.2,2.39,3.69,1.19,5.55Z"/>
  <path class="cls-1" d="M125.1,147.83l-.07,.1c-1.2,1.85-3.69,2.39-5.55,1.19l-12.12-7.85c-1.85-1.2-2.38-3.7-1.18-5.56l.06-.1c1.2-1.85,3.7-2.39,5.55-1.18l12.12,7.85c1.86,1.2,2.39,3.69,1.19,5.55Z"/>
  <path class="cls-1" d="M140.79,142.46v.66c-.39,.01-.77-.1-1.1-.31l-42.01-27.21c-.46-.3-.73-.72-.85-1.17l-1.86-1.2,1.86,1.18,43.96,28.05Z"/>
  <path class="cls-1" d="M164.69,98.31l20.81-16.86c.58-.47,1.39-.55,2.05-.21l50.51,26.13c1.23,.63,1.37,2.33,.26,3.16l-19.65,14.68"/>
  <path class="cls-5" d="M162.59,97.91l-68.47,14.32m0,0l2.66,1.72,44.01,28.51m22.75-44.75l1.16,.6,53.1,27.59m-77.01,16.56l72.61-15.6,3.57-.77"/>
  <path class="cls-1" d="M213.37,126.9c-.25,.45-.68,.81-1.28,.94l-70.93,15.24,72.21-16.18Z"/>
  <path class="cls-1" d="M217.8,126.96l-.59,26.34-52.07,12.47c-.73,.17-1.49-.05-2.02-.57l-20.09-21.49,74.77-16.75Z"/>
  <polygon class="cls-1" points="217.81 125.91 216.97 126.09 217.8 125.9 217.81 125.91"/>
  <path class="cls-3" d="M113.34,122.98v-7.25s44.97-9.03,49.74-9.71c4.78-.68,9.93,.72,5.67,3.56l-50.79,9.34-.55,6.78-4.07-2.71Z"/>
  <path class="cls-3" d="M124.64,130.36v-7.25s44.97-9.03,49.74-9.71c4.78-.68,9.93,.72,5.67,3.56-3.85,.71-50.79,9.34-50.79,9.34l-.55,6.78-4.07-2.71Z"/>
  <path class="cls-3" d="M136.19,138.42v-7.25s44.97-9.03,49.74-9.71,9.93,.72,5.67,3.56l-50.79,9.34-.55,6.78-4.07-2.71Z"/>
  <line class="cls-6" x1="170.34" y1="107.79" x2="170.34" y2="115.34"/>
  <line class="cls-6" x1="193.19" y1="123.18" x2="193.19" y2="130.73"/>
  <line class="cls-6" x1="181.63" y1="115.14" x2="181.63" y2="122.69"/>
  <path class="cls-4" d="M125.1,147.83l-.07,.1c-1.2,1.85-3.69,2.39-5.55,1.19l-12.12-7.85c-1.85-1.2-2.38-3.7-1.18-5.56l.06-.1c1.2-1.85,3.7-2.39,5.55-1.18l12.12,7.85c1.86,1.2,2.39,3.69,1.19,5.55Z"/>
  <polyline class="cls-7" points="140.79 211.05 141.16 143.08 140.79 142.84 96.83 114.43"/>
  <path class="cls-1" d="M235.06,149.02l-17.85,4.28-52.07,12.47c-.73,.17-1.49-.05-2.02-.57l-20.09-21.49,74.77-16.75,.18-.04,18.11,18.45c1.2,1.21,.62,3.26-1.03,3.65Z"/>
  <rect class="cls-2" x="101.45" y="133.59" width="29.22" height="16.36" transform="translate(95.72 -40.31) rotate(32.93)"/>
  <rect class="cls-4" x="104.04" y="137.5" width="22.47" height="8.15" rx="4.01" ry="4.01" transform="translate(95.49 -39.92) rotate(32.93)"/>
</svg>