<svg width="14" height="14" viewBox="0 0 14 14" fill="none" xmlns="http://www.w3.org/2000/svg">
<g clip-path="url(#clip0_790_538)">
<path d="M13.1745 12.9109L9.85746 9.48323C10.7614 8.34084 11.2058 6.88314 11.0988 5.41164C10.9918 3.94014 10.3416 2.56742 9.28262 1.57743C8.22363 0.587442 6.83693 0.055918 5.40933 0.0928023C3.98172 0.129687 2.62246 0.732158 1.61267 1.7756C0.602894 2.81904 0.0198572 4.22362 -0.0158373 5.6988C-0.0515318 7.17399 0.462847 8.60692 1.4209 9.7012C2.37896 10.7955 3.70739 11.4674 5.13142 11.578C6.55546 11.6885 7.96614 11.2293 9.07168 10.2952L12.3887 13.7228C12.4935 13.8274 12.6339 13.8853 12.7796 13.884C12.9253 13.8827 13.0647 13.8223 13.1677 13.7158C13.2708 13.6094 13.3292 13.4653 13.3305 13.3148C13.3317 13.1642 13.2757 13.0192 13.1745 12.9109ZM5.55734 10.4457C4.67807 10.4457 3.81853 10.1762 3.08744 9.67144C2.35635 9.16666 1.78653 8.44919 1.45005 7.60976C1.11356 6.77034 1.02552 5.84666 1.19706 4.95553C1.3686 4.0644 1.79201 3.24585 2.41375 2.60338C3.0355 1.96091 3.82765 1.52339 4.69003 1.34613C5.55241 1.16887 6.4463 1.25985 7.25864 1.60755C8.07099 1.95525 8.76531 2.54406 9.25381 3.29952C9.74232 4.05499 10.0031 4.94317 10.0031 5.85176C10.0017 7.06971 9.53292 8.23739 8.69947 9.09862C7.86603 9.95985 6.73601 10.4443 5.55734 10.4457Z" fill="#EE46BC"/>
</g>
<defs>
<clipPath id="clip0_790_538">
<rect width="13.3371" height="13.7817" fill="white" transform="translate(0 0.109131)"/>
</clipPath>
</defs>
</svg>
