<svg width="34" height="30" viewBox="0 0 34 30" fill="none" xmlns="http://www.w3.org/2000/svg">
<g clip-path="url(#clip0_181_770)">
<path d="M30.8163 2.105C28.561 0 24.9301 0 17.6698 0H16.3306C9.07026 0 5.43944 0 3.18408 2.105C0.928711 4.21 0.928711 7.59875 0.928711 14.375V15.625C0.928711 22.4013 0.928711 25.7887 3.18408 27.895C5.43944 30.0012 9.07026 30 16.3306 30H17.6698C24.9301 30 28.5596 30 30.8163 27.895C33.0717 25.79 33.0717 22.4013 33.0717 15.625V14.375C33.0717 7.59875 33.0717 4.21 30.8163 2.105ZM27.0489 21.25H24.7051C23.8118 21.25 23.5493 20.585 21.9596 19.1012C20.5681 17.85 19.9721 17.6875 19.6252 17.6875C19.1524 17.6875 19.0118 17.8125 19.0118 18.4375V20.3988C19.0118 20.9363 18.8283 21.25 17.3377 21.25C14.8547 21.25 12.1252 19.8425 10.1872 17.2475C7.28097 13.4463 6.48677 10.5725 6.48677 9.99375C6.48677 9.66875 6.6207 9.375 7.29034 9.375H9.63544C10.2341 9.375 10.4591 9.62 10.6841 10.225C11.8305 13.3413 13.7645 16.065 14.5587 16.065C14.856 16.065 14.9926 15.9363 14.9926 15.2313V12.01C14.9055 10.5275 14.0605 10.405 14.0605 9.8775C14.0605 9.63375 14.2841 9.375 14.6564 9.375H18.3408C18.8377 9.375 19.0105 9.6225 19.0105 10.1787V14.5125C19.0105 14.975 19.2261 15.1375 19.3748 15.1375C19.6734 15.1375 19.9212 14.975 20.4676 14.465C22.1565 12.7037 23.3484 9.9925 23.3484 9.9925C23.4984 9.6675 23.7717 9.37375 24.369 9.37375H26.7127C27.4212 9.37375 27.5712 9.71375 27.4212 10.1775C27.1226 11.4525 24.2672 15.2063 24.2672 15.2063C24.0181 15.5775 23.919 15.7625 24.2672 16.18C24.5163 16.505 25.3346 17.1537 25.881 17.7563C26.8882 18.8137 27.6476 19.705 27.8592 20.32C28.0547 20.9375 27.7185 21.25 27.0489 21.25Z" fill="#7A5AF8"/>
</g>
<defs>
<clipPath id="clip0_181_770">
<rect width="32.143" height="30" fill="white" transform="translate(0.928711)"/>
</clipPath>
</defs>
</svg>
